<?xml version="1.0" standalone="no"?>
<!DOCTYPE svg PUBLIC "-//W3C//DTD SVG 20010904//EN"
 "http://www.w3.org/TR/2001/REC-SVG-20010904/DTD/svg10.dtd">
<svg version="1.0" xmlns="http://www.w3.org/2000/svg"
 width="735.000000pt" height="701.000000pt" viewBox="0 0 735.000000 701.000000"
 preserveAspectRatio="xMidYMid meet">

<g transform="translate(0.000000,701.000000) scale(0.100000,-0.100000)"
fill="#000000" stroke="none">
<path d="M1958 5683 c-1 -5 -22 -25 -46 -46 l-43 -38 -105 3 c-110 3 -123 -2
-124 -44 0 -23 39 -63 70 -73 14 -4 30 -11 35 -16 6 -4 49 -13 97 -20 76 -10
95 -10 162 6 82 19 135 16 381 -21 245 -37 304 -51 412 -100 28 -13 55 -24 58
-24 4 0 21 -6 38 -14 75 -32 213 -71 307 -85 184 -28 298 -71 373 -140 24 -23
51 -41 60 -41 30 0 98 42 125 78 23 31 27 45 27 106 0 104 -28 157 -110 208
-95 60 -260 81 -595 76 -237 -3 -221 -6 -350 69 l-65 38 -278 -3 -277 -2 -10
24 c-13 34 -62 66 -103 66 -20 0 -37 -3 -39 -7z"/>
<path d="M5120 5630 c-184 -45 -216 -50 -387 -59 -163 -9 -336 1 -360 21 -16
13 -267 12 -292 -2 -11 -5 -32 -10 -48 -10 -30 0 -189 -37 -213 -49 -9 -5 -35
-12 -58 -16 -26 -4 -42 -12 -42 -21 0 -8 5 -14 11 -14 37 0 121 -126 134 -198
7 -46 12 -49 58 -28 18 8 73 31 122 51 50 20 115 49 145 64 45 21 68 26 130
25 42 0 96 -8 123 -17 61 -22 184 -22 262 -1 33 9 71 18 85 21 14 2 34 8 45
13 11 4 57 19 103 31 l83 23 24 -31 c29 -36 75 -58 108 -49 13 3 39 19 58 36
19 17 45 33 59 36 129 31 190 70 190 124 0 32 -18 49 -69 67 -56 20 -145 14
-271 -17z"/>
<path d="M3266 5060 c-9 -21 -20 -55 -23 -75 -3 -19 -10 -38 -14 -41 -12 -7
-11 -237 0 -250 5 -5 11 -22 13 -39 4 -41 26 -41 73 0 49 43 52 45 95 75 19
14 37 28 40 31 3 3 27 18 53 34 45 26 48 30 43 58 -3 16 -6 51 -6 76 l0 47
-77 45 c-90 53 -145 79 -165 79 -8 0 -22 -18 -32 -40z"/>
<path d="M3987 4988 c-24 -24 -58 -73 -76 -110 -40 -84 -64 -100 -147 -99 -35
0 -64 -2 -64 -4 0 -2 16 -16 36 -31 69 -53 189 -50 253 6 18 17 37 30 42 30 4
0 20 20 36 45 38 60 60 66 93 26 34 -40 48 -39 56 5 11 62 -2 106 -42 142 -32
27 -45 32 -90 32 -49 0 -57 -3 -97 -42z"/>
<path d="M3519 4692 c-140 -100 -229 -174 -229 -191 0 -5 7 -14 14 -21 8 -6
20 -27 27 -47 20 -62 124 -145 162 -130 8 3 17 27 21 56 9 68 41 121 72 121
27 0 30 -22 13 -100 -42 -187 -41 -176 -65 -660 -10 -213 11 -309 85 -377 l36
-33 -52 0 c-28 0 -53 4 -55 9 -1 4 -13 12 -26 15 -16 5 -24 3 -28 -9 -9 -22
19 -47 76 -69 121 -49 120 -45 120 -325 0 -134 5 -231 12 -256 15 -49 15 -230
0 -308 -8 -45 -22 -73 -65 -130 -79 -104 -107 -175 -107 -274 0 -54 15 -144
30 -178 5 -11 11 -32 14 -48 l6 -27 317 0 316 0 -6 73 c-4 41 -13 87 -22 103
-8 16 -15 34 -15 39 0 34 -168 225 -197 225 -7 0 -13 4 -13 9 0 5 -13 11 -29
14 -41 8 -44 31 -20 118 17 58 22 112 26 254 5 171 4 185 -22 285 -14 58 -32
126 -38 152 -7 25 -15 50 -20 54 -4 4 -7 19 -7 33 0 14 -17 71 -36 126 -19 55
-35 105 -35 110 1 6 4 28 7 50 8 55 -18 85 -88 105 -53 16 -53 16 -56 60 -2
25 1 68 7 95 25 122 41 239 45 350 6 120 32 238 76 340 30 69 39 173 18 222
-6 15 -37 53 -68 84 -32 31 -70 73 -85 93 -15 20 -32 36 -39 35 -6 0 -41 -22
-77 -47z"/>
<path d="M4050 4710 c-19 -16 -39 -29 -44 -30 -14 0 -56 -50 -67 -77 -5 -13
-9 -42 -9 -64 0 -35 -4 -41 -29 -50 -26 -9 -29 -14 -34 -77 -4 -37 -9 -79 -13
-94 l-6 -28 94 0 c89 0 95 -1 130 -30 20 -17 40 -39 43 -50 10 -32 47 -24 90
20 27 28 48 40 67 40 27 0 28 2 28 52 0 50 2 53 60 109 49 46 60 63 60 89 0
47 -27 95 -80 143 -56 50 -127 77 -202 77 -45 0 -59 -5 -88 -30z"/>
<path d="M3125 2617 c0 -61 -5 -81 -31 -132 -39 -75 -65 -125 -76 -147 -24
-51 -1 -165 41 -209 54 -54 82 -64 203 -69 64 -3 122 -11 130 -17 7 -6 23 -13
34 -17 19 -6 23 -2 28 31 13 70 39 141 60 165 35 38 107 150 103 161 -4 13
-19 21 -79 42 -45 16 -48 19 -48 52 l0 36 -71 -7 c-39 -3 -93 -3 -120 0 -46 6
-49 8 -55 43 -11 71 -41 107 -114 137 -3 1 -5 -30 -5 -69z"/>
</g>
</svg>
