<?xml version="1.0" standalone="no"?>
<!DOCTYPE svg PUBLIC "-//W3C//DTD SVG 20010904//EN"
 "http://www.w3.org/TR/2001/REC-SVG-20010904/DTD/svg10.dtd">
<svg version="1.0" xmlns="http://www.w3.org/2000/svg"
 width="512.000000pt" height="512.000000pt" viewBox="0 0 512.000000 512.000000"
 preserveAspectRatio="xMidYMid meet">

<g transform="translate(0.000000,512.000000) scale(0.100000,-0.100000)"
fill="#000000" stroke="none">
<path d="M842 4706 c-54 -50 -80 -57 -171 -45 -76 9 -111 -5 -111 -46 0 -74
243 -142 360 -101 64 22 99 20 372 -20 253 -37 268 -41 539 -142 77 -29 183
-60 245 -72 60 -11 134 -25 164 -31 92 -18 192 -65 252 -119 l55 -49 50 24
c68 31 105 81 111 150 12 142 -75 237 -258 281 -62 14 -126 18 -371 20 -326 2
-298 -3 -438 73 -61 33 -194 57 -258 47 -73 -12 -316 -26 -335 -20 -11 3 -23
17 -28 30 -12 30 -66 64 -103 64 -19 0 -43 -14 -75 -44z"/>
<path d="M4145 4714 c-16 -3 -61 -14 -100 -24 -120 -33 -224 -49 -397 -60
-140 -9 -182 -8 -264 5 -53 8 -100 18 -105 21 -18 11 -239 3 -314 -11 -89 -17
-303 -73 -323 -84 -10 -6 -4 -14 21 -29 60 -35 108 -113 122 -194 3 -21 9 -38
14 -38 8 0 112 41 166 65 130 59 232 95 269 95 22 0 74 -9 115 -20 111 -30
193 -26 346 15 72 19 157 42 189 51 l60 16 19 -26 c22 -31 66 -56 97 -56 12 0
40 15 63 34 25 20 70 42 112 55 115 34 155 69 143 127 -8 44 -129 74 -233 58z"/>
<path d="M2181 4105 c-37 -99 -44 -142 -38 -253 5 -106 20 -172 39 -172 5 0
31 18 56 41 26 23 88 69 139 102 l91 61 -5 71 c-3 41 -12 77 -21 87 -18 21
-204 118 -225 118 -10 0 -24 -22 -36 -55z"/>
<path d="M2920 4058 c-30 -23 -54 -54 -76 -99 -18 -36 -47 -78 -64 -93 -27
-22 -41 -26 -97 -26 l-66 0 19 -21 c10 -12 30 -27 44 -34 39 -20 121 -28 155
-15 54 20 130 79 155 120 30 49 67 54 98 15 36 -45 52 -28 52 56 0 42 -5 55
-33 86 -29 31 -41 37 -88 41 -50 4 -58 1 -99 -30z"/>
<path d="M2417 3736 c-112 -80 -194 -147 -202 -165 -3 -8 1 -21 9 -30 8 -9 21
-33 30 -54 19 -47 77 -102 123 -118 19 -6 37 -9 39 -6 3 3 12 35 21 71 16 72
44 116 74 116 24 0 25 -41 5 -120 -38 -146 -61 -416 -61 -720 0 -186 13 -237
78 -299 l42 -41 -43 0 c-24 0 -56 7 -73 15 -31 17 -49 13 -49 -10 0 -19 46
-49 109 -71 85 -30 85 -30 92 -319 4 -159 11 -264 19 -290 10 -32 10 -66 1
-169 -13 -141 -16 -148 -91 -251 -94 -129 -112 -255 -60 -428 l23 -77 318 0
318 0 -5 38 c-22 158 -55 229 -153 327 -39 38 -89 79 -112 90 -63 30 -66 41
-39 127 19 62 24 101 27 253 5 177 4 183 -26 300 -61 239 -91 341 -114 401
-16 39 -21 67 -16 75 15 23 10 76 -9 99 -9 12 -42 30 -72 40 l-55 19 2 73 c1
40 11 122 22 181 12 59 21 146 21 192 0 108 19 202 69 349 45 132 52 205 25
259 -9 18 -50 66 -90 108 -41 42 -74 82 -74 88 0 23 -38 7 -123 -53z"/>
<path d="M2939 3750 c-74 -54 -79 -62 -88 -140 -5 -47 -9 -55 -31 -60 -22 -5
-26 -12 -31 -65 -4 -33 -10 -77 -14 -97 l-7 -38 86 0 c99 0 129 -11 170 -64
15 -20 35 -36 44 -36 10 0 36 18 57 40 27 28 48 40 67 40 27 0 28 2 28 52 0
50 2 53 60 109 47 45 60 64 60 87 0 108 -141 222 -275 222 -56 -1 -64 -4 -126
-50z"/>
<path d="M2047 1687 c5 -59 3 -66 -51 -172 -84 -167 -85 -260 -4 -336 50 -47
87 -59 185 -59 77 -1 112 -7 174 -34 12 -5 19 8 33 68 16 69 75 182 104 200
12 7 52 82 52 96 0 6 -4 10 -10 10 -5 0 -34 9 -65 21 -53 20 -55 22 -55 56 l0
36 -67 -6 c-38 -4 -91 -4 -119 -1 l-51 6 -12 53 c-12 55 -45 96 -92 114 l-27
10 5 -62z"/>
</g>
</svg>
