<?xml version="1.0" encoding="UTF-8"?>
<svg version="1.1" xmlns="http://www.w3.org/2000/svg" width="1500" height="1500">
<path d="M0 0 C495 0 990 0 1500 0 C1500 495 1500 990 1500 1500 C1005 1500 510 1500 0 1500 C0 1005 0 510 0 0 Z " fill="#FEFEFE" transform="translate(0,0)"/>
<path d="M0 0 C0 494.67 0 989.34 0 1499 C-494.67 1499 -989.34 1499 -1499 1499 C-1495.46965864 1494.88126842 -1492.12774535 1491.00274072 -1488.32746993 1487.20232609 C-1487.43527931 1486.30767698 -1486.5430887 1485.41302787 -1485.62386201 1484.49126817 C-1484.64568928 1483.51542236 -1483.66747094 1482.53962227 -1482.68921202 1481.56386286 C-1481.63482829 1480.50848673 -1480.58066376 1479.45289158 -1479.52669732 1478.39709871 C-1476.62498997 1475.49163594 -1473.72017774 1472.5892948 -1470.81485576 1469.6874471 C-1467.64469617 1466.51997148 -1464.47744669 1463.34958817 -1461.30982271 1460.1795772 C-1455.73478647 1454.60114516 -1450.15788687 1449.02458136 -1444.5797809 1443.44921894 C-1436.22923354 1435.10276021 -1427.88156732 1426.75342431 -1419.53446503 1418.40352043 C-1405.30969566 1404.17414668 -1391.08254674 1389.94715426 -1376.85411072 1375.72144699 C-1362.43114066 1361.30122617 -1348.00925381 1346.87992331 -1333.58869362 1332.45729256 C-1332.67859021 1331.54705998 -1331.76848681 1330.6368274 -1330.83080451 1329.69901202 C-1327.12424023 1325.99191448 -1323.41768367 1322.28480922 -1319.71113692 1318.57769415 C-1309.2627123 1308.12766863 -1298.81411688 1297.67781389 -1288.36540186 1287.22807872 C-1287.88658556 1286.74921552 -1287.40776926 1286.27035232 -1286.91444338 1285.77697811 C-1263.30558622 1262.16584161 -1239.69482102 1238.55661336 -1216.08386803 1214.94757271 C-1215.04946863 1213.91325695 -1214.01506923 1212.87894118 -1212.98066984 1211.84462541 C-1212.46802015 1211.33201718 -1211.95537046 1210.81940895 -1211.42718593 1210.29126713 C-1204.66690361 1203.53153131 -1197.90662623 1196.77179054 -1191.14636207 1190.01203656 C-1190.62963326 1189.49534692 -1190.11290445 1188.97865727 -1189.5805172 1188.44631036 C-1165.64561619 1164.5132098 -1141.71182916 1140.57899537 -1117.77828945 1116.64453349 C-1115.16814185 1114.03428609 -1112.55799209 1111.42404084 -1109.94784258 1108.81379535 C-1102.0807993 1100.94646148 -1094.2137592 1093.07912444 -1086.34672566 1085.21178083 C-1062.35674351 1061.22085411 -1038.36658918 1037.23009957 -1014.37628651 1013.23949337 C-1013.8421115 1012.7053115 -1013.30793649 1012.17112962 -1012.75757437 1011.62076042 C-978.15944499 977.02219226 -943.56054575 942.42439409 -908.96109295 907.82714939 C-908.13246568 906.9985748 -908.13246568 906.9985748 -907.28709847 906.15326133 C-888.78313618 887.65047543 -870.27913405 869.14772935 -851.77512786 850.64498735 C-795.80722743 794.68090805 -739.84019165 738.71596453 -639.88548725 638.75523141 C-621.38007155 620.24855254 -602.87464852 601.74188101 -584.36918926 583.2352457 C-583.8167515 582.6827727 -583.26431375 582.1302997 -582.69513545 581.56108509 C-548.11065138 546.97439646 -513.52555655 512.38831867 -478.93974781 477.80295467 C-478.40578269 477.26899631 -477.87181757 476.73503794 -477.32167168 476.18489902 C-453.34819319 452.21172722 -429.37454893 428.2387212 -405.40075124 404.26586861 C-397.53863492 396.40406185 -389.67652622 388.54224748 -381.8144201 380.68043052 C-379.20626405 378.07237046 -376.59810732 375.46431108 -373.98994901 372.85625328 C-350.05340467 348.92062858 -326.11718829 324.98467606 -302.18201041 301.04768491 C-301.66541295 300.53104847 -301.14881548 300.01441203 -300.61656355 299.48211995 C-293.85740082 292.7224454 -287.0982535 285.96275544 -280.33910805 279.20306362 C-279.57042706 278.43432052 -279.57042706 278.43432052 -278.78621717 277.65004725 C-277.75233575 276.61608227 -276.71845436 275.58211725 -275.68457302 274.5481522 C-252.10651103 250.96818628 -228.52815183 227.38851781 -204.94798243 203.81065929 C-204.47002824 203.33275178 -203.99207404 202.85484428 -203.49963639 202.36245473 C-192.61027876 191.4741729 -181.72074888 180.58606335 -170.83109369 169.69807912 C-167.13882221 166.00636003 -163.44655857 162.31463309 -159.75430107 158.62290001 C-158.84811727 157.71684641 -157.94193346 156.81079282 -157.00828955 155.87728305 C-142.61745599 141.48842748 -128.2283044 127.09789113 -113.83983829 112.70666822 C-99.71675094 98.58094572 -85.59189711 84.4569917 -71.4651176 70.33496162 C-63.16686127 62.03938826 -54.86999654 53.74242872 -46.57511669 45.44347911 C-41.08150893 39.94744581 -35.58612328 34.45319467 -30.08922407 28.96045335 C-26.96334825 25.83683894 -23.83829142 22.71241645 -20.71540267 19.58581543 C-17.88955959 16.75664186 -15.06148242 13.92972291 -12.23150128 11.10468875 C-11.20976583 10.08391951 -10.18888869 9.06229034 -9.16892363 8.0397521 C-7.79717053 6.66477417 -6.42209734 5.29311086 -5.04681091 3.92166707 C-4.28344421 3.15832835 -3.52007752 2.39498962 -2.7335785 1.60851942 C-1 0 -1 0 0 0 Z " fill="#212121" transform="translate(1500,1)"/>
</svg>
