<?xml version="1.0" standalone="no"?>
<!DOCTYPE svg PUBLIC "-//W3C//DTD SVG 20010904//EN"
 "http://www.w3.org/TR/2001/REC-SVG-20010904/DTD/svg10.dtd">
<svg version="1.0" xmlns="http://www.w3.org/2000/svg"
 width="735.000000pt" height="701.000000pt" viewBox="0 0 735.000000 701.000000"
 preserveAspectRatio="xMidYMid meet">

<g transform="translate(0.000000,701.000000) scale(0.100000,-0.100000)"
fill="#000000" stroke="none">
<path d="M990 6614 c-14 -9 -50 -41 -80 -70 -30 -29 -68 -58 -83 -63 -35 -14
-121 -14 -212 -1 -81 12 -118 6 -145 -23 -78 -83 65 -194 300 -232 127 -20
181 -19 265 7 116 36 244 30 615 -26 52 -8 142 -22 200 -30 230 -35 393 -77
491 -127 69 -35 300 -118 474 -171 28 -9 104 -25 170 -37 347 -63 401 -77 521
-136 71 -34 113 -64 168 -115 40 -39 81 -70 90 -70 24 0 125 49 160 78 37 29
81 90 101 138 44 107 -13 306 -114 395 -97 86 -259 142 -466 161 -162 15 -642
21 -735 10 -110 -13 -243 7 -318 48 -180 101 -220 119 -298 134 -91 18 -353
22 -419 6 -22 -5 -131 -13 -242 -16 l-202 -7 -7 29 c-12 47 -34 74 -88 105
-58 33 -109 37 -146 13z"/>
<path d="M6346 6550 c-49 -11 -101 -23 -115 -29 -129 -48 -389 -84 -724 -101
-215 -10 -350 2 -537 50 -57 15 -326 14 -405 -1 -33 -6 -94 -17 -135 -24 -124
-23 -301 -64 -360 -85 -14 -5 -52 -16 -85 -26 -86 -25 -94 -34 -53 -55 69 -36
134 -105 177 -191 22 -46 41 -93 41 -106 0 -21 20 -112 24 -112 1 0 74 30 162
66 87 36 173 70 189 76 17 6 39 17 50 25 11 7 25 13 31 13 6 0 38 12 70 27
161 73 234 79 404 36 91 -23 126 -27 255 -28 106 0 169 5 215 16 36 9 88 22
115 29 65 17 274 79 301 90 12 4 46 11 76 15 l54 7 27 -41 c31 -47 109 -91
160 -91 29 0 73 23 97 50 34 38 98 72 170 91 188 48 270 109 270 199 0 43 -42
81 -112 103 -74 23 -244 22 -362 -3z"/>
<path d="M3192 5638 c-19 -24 -53 -115 -96 -257 -22 -73 -22 -326 0 -402 32
-113 39 -133 49 -136 6 -2 58 35 115 82 107 87 319 235 337 235 5 0 18 9 28
20 15 17 16 24 7 45 -6 14 -15 68 -18 121 l-7 95 -45 31 c-52 36 -330 178
-348 178 -6 0 -16 -6 -22 -12z"/>
<path d="M4479 5521 c-87 -12 -178 -100 -229 -221 -32 -77 -75 -136 -120 -166
-34 -23 -47 -25 -139 -25 -56 0 -101 -3 -101 -7 0 -15 55 -60 107 -87 43 -22
66 -27 140 -28 78 -1 95 2 143 26 97 48 176 113 221 182 58 91 116 97 167 19
29 -44 61 -44 74 1 12 41 11 146 -1 177 -13 35 -68 96 -100 112 -34 17 -104
24 -162 17z"/>
<path d="M3681 5036 c-7 -8 -63 -49 -124 -90 -135 -92 -235 -170 -326 -255
-36 -34 -38 -46 -10 -75 11 -11 31 -48 44 -80 44 -109 180 -222 257 -214 27 2
34 8 36 28 6 51 35 156 54 197 29 58 49 75 90 71 30 -3 33 -6 36 -38 2 -19 -1
-51 -6 -70 -6 -19 -15 -57 -22 -85 -6 -27 -17 -77 -26 -110 -31 -124 -45 -257
-54 -505 -5 -140 -14 -282 -19 -315 -6 -33 -11 -141 -11 -241 0 -309 35 -435
147 -531 61 -53 58 -63 -22 -63 -35 0 -65 8 -97 25 -60 32 -76 31 -89 -1 -7
-21 -6 -31 7 -45 22 -24 116 -72 187 -94 65 -20 100 -55 117 -113 6 -22 10
-173 10 -372 0 -311 2 -342 23 -430 36 -155 28 -521 -14 -615 -7 -16 -39 -64
-69 -105 -101 -134 -137 -194 -165 -270 -49 -136 -45 -356 10 -500 8 -19 19
-59 26 -87 l13 -53 528 0 528 0 0 51 c0 112 -64 314 -130 415 -77 115 -261
281 -333 299 -32 8 -77 52 -77 74 1 20 23 103 32 116 6 10 24 94 38 180 15 92
12 582 -4 644 -8 31 -29 110 -46 176 -39 153 -59 225 -70 250 -5 11 -13 40
-19 65 -28 126 -75 278 -109 348 -17 35 -17 39 0 72 34 69 17 137 -44 183 -40
29 -58 36 -128 51 l-55 12 -3 88 c-3 85 12 193 54 401 9 46 19 166 23 285 9
247 22 310 111 550 18 47 35 99 40 115 5 17 13 46 19 65 6 19 11 74 11 123 0
121 -21 160 -164 303 -61 61 -120 128 -131 148 -21 38 -53 48 -74 22z"/>
<path d="M4494 5017 c-123 -84 -141 -97 -166 -124 -38 -40 -50 -76 -57 -167
-6 -83 -8 -85 -66 -103 -30 -8 -30 -10 -37 -93 -3 -47 -11 -103 -16 -125 -6
-22 -13 -54 -17 -72 l-7 -32 155 -3 c155 -3 156 -3 199 -33 24 -17 58 -54 77
-83 49 -75 72 -73 169 19 72 69 76 71 113 65 l39 -6 0 78 c0 72 3 83 30 120
16 22 54 59 84 82 65 47 86 82 86 143 0 79 -27 136 -99 207 -107 105 -232 160
-367 160 -65 0 -77 -3 -120 -33z"/>
<path d="M2915 1609 c5 -13 10 -59 12 -101 6 -103 -7 -139 -125 -348 -46 -83
-61 -137 -64 -236 -3 -83 0 -96 26 -148 33 -64 100 -130 170 -165 42 -20 65
-24 194 -28 154 -4 212 -14 274 -45 52 -26 68 -23 68 10 0 26 25 126 50 202
12 37 39 92 50 100 8 7 122 160 137 185 28 46 45 85 41 96 -2 7 -51 29 -109
49 l-104 37 -5 59 -5 59 -40 -2 c-107 -7 -303 -7 -327 0 -23 6 -27 14 -33 59
-17 127 -76 198 -194 233 -22 7 -23 5 -16 -16z"/>
</g>
</svg>
